<svg width="155" height="44" viewBox="0 0 155 44" fill="none" xmlns="http://www.w3.org/2000/svg">
<mask id="mask0_21_4345" style="mask-type:luminance" maskUnits="userSpaceOnUse" x="0" y="0" width="47" height="44">
<path fill-rule="evenodd" clip-rule="evenodd" d="M38.0566 19.1134C31.7947 8.16576 25.0412 -0.193927 23.4998 0.00342282C21.9584 -0.193927 15.2051 8.16576 8.94316 19.1134C2.68076 30.0593 -0.787181 39.5692 0.152167 40.8185C0.499234 41.6537 4.06381 42.6098 9.42679 43.2689C11.0235 43.4654 12.7802 43.6259 14.6573 43.7669C18.6712 44.07 22.0988 43.6625 24.4684 40.7327C27.3792 37.1328 27.3858 31.1678 24.146 26.1668C23.9804 25.9113 23.5946 26.0811 23.6354 26.3838C23.8328 27.8431 23.8938 29.8464 23.4823 32.1271C23.003 34.7833 21.0782 36.8644 18.4517 36.8644C16.303 36.8644 14.4686 35.5102 13.739 33.6013C12.9691 31.5838 13.6955 29.1513 14.5679 26.7973C16.9237 20.434 21.5895 14.8731 22.7682 13.6341C23.2233 13.1565 23.7445 13.1229 24.2318 13.6341C25.8265 15.3104 33.8088 24.9007 33.8088 33.6844C33.8088 37.9045 31.3337 41.5363 27.7689 43.1922C27.3556 43.3841 27.4792 44.0153 27.9338 43.9997C38.3576 43.6423 46.3193 42.0887 46.8478 40.8185C47.7872 39.5692 44.3192 30.0593 38.0566 19.1134Z" fill="white"/>
</mask>
<g mask="url(#mask0_21_4345)">
<path fill-rule="evenodd" clip-rule="evenodd" d="M38.0566 19.1134C31.7947 8.16576 25.0412 -0.193927 23.4998 0.00342282C21.9584 -0.193927 15.2051 8.16576 8.94316 19.1134C2.68076 30.0593 -0.787181 39.5692 0.152167 40.8185C0.499234 41.6537 4.06381 42.6098 9.42679 43.2689C11.0235 43.4654 12.7802 43.6259 14.6573 43.7669C18.6712 44.07 22.0988 43.6625 24.4684 40.7327C27.3792 37.1328 27.3858 31.1678 24.146 26.1668C23.9804 25.9113 23.5946 26.0811 23.6354 26.3838C23.8328 27.8431 23.8938 29.8464 23.4823 32.1271C23.003 34.7833 21.0782 36.8644 18.4517 36.8644C16.303 36.8644 14.4686 35.5102 13.739 33.6013C12.9691 31.5838 13.6955 29.1513 14.5679 26.7973C16.9237 20.434 21.5895 14.8731 22.7682 13.6341C23.2233 13.1565 23.7445 13.1229 24.2318 13.6341C25.8265 15.3104 33.8088 24.9007 33.8088 33.6844C33.8088 37.9045 31.3337 41.5363 27.7689 43.1922C27.3556 43.3841 27.4792 44.0153 27.9338 43.9997C38.3576 43.6423 46.3193 42.0887 46.8478 40.8185C47.7872 39.5692 44.3192 30.0593 38.0566 19.1134Z" fill="#008929"/>
</g>
<path d="M65.54 10.428H70.412L78.224 30H73.156L71.588 25.968H64.364L62.796 30H57.7L65.54 10.428ZM70.356 22.16L67.976 15.58L65.568 22.16H70.356ZM90.7664 30.42C88.6384 30.42 86.7624 30.0093 85.1384 29.188C83.5331 28.3667 82.2918 27.1907 81.4144 25.66C80.5371 24.1107 80.0984 22.3 80.0984 20.228C80.0984 18.156 80.5371 16.3547 81.4144 14.824C82.2918 13.2747 83.5331 12.0893 85.1384 11.268C86.7624 10.428 88.6384 10.008 90.7664 10.008C92.1851 10.008 93.4358 10.148 94.5184 10.428C95.6198 10.6893 96.6371 11.1187 97.5704 11.716V16.42C96.7491 15.7667 95.8158 15.3 94.7704 15.02C93.7438 14.7213 92.5584 14.572 91.2144 14.572C90.0571 14.572 89.0211 14.8053 88.1064 15.272C87.2104 15.72 86.5011 16.3733 85.9784 17.232C85.4558 18.0907 85.1944 19.0893 85.1944 20.228C85.1944 22.0013 85.7078 23.4013 86.7344 24.428C87.7798 25.4547 89.1891 25.968 90.9624 25.968C91.9518 25.968 92.7824 25.8 93.4544 25.464V22.328H90.4584V18.856H98.1584V28.6C96.1611 29.8133 93.6971 30.42 90.7664 30.42ZM102.127 10.428H110.919C113.215 10.428 115.007 11.0067 116.295 12.164C117.602 13.3213 118.255 14.9827 118.255 17.148C118.255 18.604 117.938 19.8453 117.303 20.872C116.669 21.8987 115.773 22.664 114.615 23.168L118.087 30H112.991L109.883 23.868H107.083V30H102.127V10.428ZM110.051 19.696C111.041 19.696 111.806 19.5093 112.347 19.136C112.889 18.744 113.159 18.0813 113.159 17.148C113.159 16.1773 112.889 15.5147 112.347 15.16C111.825 14.7867 111.059 14.6 110.051 14.6H107.083V19.696H110.051ZM122.229 10.428H127.185V30H122.229V10.428Z" fill="#232323"/>
<path d="M138.974 10.428H143.846L151.658 30H146.59L145.022 25.968H137.798L136.23 30H131.134L138.974 10.428ZM143.79 22.16L141.41 15.58L139.002 22.16H143.79Z" fill="#008929"/>
</svg>
