<svg width="47" height="44" viewBox="0 0 47 44" fill="none" xmlns="http://www.w3.org/2000/svg">
<mask id="mask0_21_4346" style="mask-type:luminance" maskUnits="userSpaceOnUse" x="0" y="0" width="47" height="44">
<path fill-rule="evenodd" clip-rule="evenodd" d="M38.0566 19.1134C31.7947 8.16576 25.0412 -0.193927 23.4998 0.00342282C21.9584 -0.193927 15.2051 8.16576 8.94316 19.1134C2.68076 30.0593 -0.787181 39.5692 0.152167 40.8185C0.499234 41.6537 4.06381 42.6098 9.42679 43.2689C11.0235 43.4654 12.7802 43.6259 14.6573 43.7669C18.6712 44.07 22.0988 43.6625 24.4684 40.7327C27.3792 37.1328 27.3858 31.1678 24.146 26.1668C23.9804 25.9113 23.5946 26.0811 23.6354 26.3838C23.8328 27.8431 23.8938 29.8464 23.4823 32.1271C23.003 34.7833 21.0782 36.8644 18.4517 36.8644C16.303 36.8644 14.4686 35.5102 13.739 33.6013C12.9691 31.5838 13.6955 29.1513 14.5679 26.7973C16.9237 20.434 21.5895 14.8731 22.7682 13.6341C23.2233 13.1565 23.7445 13.1229 24.2318 13.6341C25.8265 15.3104 33.8088 24.9007 33.8088 33.6844C33.8088 37.9045 31.3337 41.5363 27.7689 43.1922C27.3556 43.3841 27.4792 44.0153 27.9338 43.9997C38.3576 43.6423 46.3193 42.0887 46.8478 40.8185C47.7872 39.5692 44.3192 30.0593 38.0566 19.1134Z" fill="white"/>
</mask>
<g mask="url(#mask0_21_4346)">
<path fill-rule="evenodd" clip-rule="evenodd" d="M38.0566 19.1134C31.7947 8.16576 25.0412 -0.193927 23.4998 0.00342282C21.9584 -0.193927 15.2051 8.16576 8.94316 19.1134C2.68076 30.0593 -0.787181 39.5692 0.152167 40.8185C0.499234 41.6537 4.06381 42.6098 9.42679 43.2689C11.0235 43.4654 12.7802 43.6259 14.6573 43.7669C18.6712 44.07 22.0988 43.6625 24.4684 40.7327C27.3792 37.1328 27.3858 31.1678 24.146 26.1668C23.9804 25.9113 23.5946 26.0811 23.6354 26.3838C23.8328 27.8431 23.8938 29.8464 23.4823 32.1271C23.003 34.7833 21.0782 36.8644 18.4517 36.8644C16.303 36.8644 14.4686 35.5102 13.739 33.6013C12.9691 31.5838 13.6955 29.1513 14.5679 26.7973C16.9237 20.434 21.5895 14.8731 22.7682 13.6341C23.2233 13.1565 23.7445 13.1229 24.2318 13.6341C25.8265 15.3104 33.8088 24.9007 33.8088 33.6844C33.8088 37.9045 31.3337 41.5363 27.7689 43.1922C27.3556 43.3841 27.4792 44.0153 27.9338 43.9997C38.3576 43.6423 46.3193 42.0887 46.8478 40.8185C47.7872 39.5692 44.3192 30.0593 38.0566 19.1134Z" fill="#008929"/>
</g>
</svg>
